<svg width="222" height="40" viewBox="0 0 222 40" fill="none" xmlns="http://www.w3.org/2000/svg">
<path d="M9.184 16.008C9.952 14.76 11.056 13.752 12.496 12.984C13.936 12.216 15.584 11.832 17.44 11.832C19.648 11.832 21.648 12.392 23.44 13.512C25.232 14.632 26.64 16.232 27.664 18.312C28.72 20.392 29.248 22.808 29.248 25.56C29.248 28.312 28.72 30.744 27.664 32.856C26.64 34.936 25.232 36.552 23.44 37.704C21.648 38.824 19.648 39.384 17.44 39.384C15.552 39.384 13.904 39.016 12.496 38.28C11.088 37.512 9.984 36.504 9.184 35.256V39H0.976V3.48H9.184V16.008ZM20.896 25.56C20.896 23.512 20.32 21.912 19.168 20.76C18.048 19.576 16.656 18.984 14.992 18.984C13.36 18.984 11.968 19.576 10.816 20.76C9.696 21.944 9.136 23.56 9.136 25.608C9.136 27.656 9.696 29.272 10.816 30.456C11.968 31.64 13.36 32.232 14.992 32.232C16.624 32.232 18.016 31.64 19.168 30.456C20.32 29.24 20.896 27.608 20.896 25.56ZM41.7621 16.68C42.7221 15.208 43.9221 14.056 45.3621 13.224C46.8021 12.36 48.4021 11.928 50.1621 11.928V20.616H47.9061C45.8581 20.616 44.3221 21.064 43.2981 21.96C42.2741 22.824 41.7621 24.36 41.7621 26.568V39H33.5541V12.216H41.7621V16.68ZM79.3334 25.176C79.3334 25.944 79.2854 26.744 79.1894 27.576H60.6134C60.7414 29.24 61.2694 30.52 62.1974 31.416C63.1574 32.28 64.3254 32.712 65.7014 32.712C67.7494 32.712 69.1734 31.848 69.9734 30.12H78.7094C78.2614 31.88 77.4454 33.464 76.2614 34.872C75.1094 36.28 73.6534 37.384 71.8934 38.184C70.1334 38.984 68.1654 39.384 65.9894 39.384C63.3654 39.384 61.0294 38.824 58.9814 37.704C56.9334 36.584 55.3334 34.984 54.1814 32.904C53.0294 30.824 52.4534 28.392 52.4534 25.608C52.4534 22.824 53.0134 20.392 54.1334 18.312C55.2854 16.232 56.8854 14.632 58.9334 13.512C60.9814 12.392 63.3334 11.832 65.9894 11.832C68.5814 11.832 70.8854 12.376 72.9014 13.464C74.9174 14.552 76.4854 16.104 77.6054 18.12C78.7574 20.136 79.3334 22.488 79.3334 25.176ZM70.9334 23.016C70.9334 21.608 70.4534 20.488 69.4934 19.656C68.5334 18.824 67.3334 18.408 65.8934 18.408C64.5174 18.408 63.3494 18.808 62.3894 19.608C61.4614 20.408 60.8854 21.544 60.6614 23.016H70.9334ZM108.911 25.176C108.911 25.944 108.864 26.744 108.768 27.576H90.1915C90.3195 29.24 90.8475 30.52 91.7755 31.416C92.7355 32.28 93.9035 32.712 95.2795 32.712C97.3275 32.712 98.7515 31.848 99.5515 30.12H108.288C107.84 31.88 107.024 33.464 105.84 34.872C104.688 36.28 103.232 37.384 101.472 38.184C99.7115 38.984 97.7435 39.384 95.5675 39.384C92.9435 39.384 90.6075 38.824 88.5595 37.704C86.5115 36.584 84.9115 34.984 83.7595 32.904C82.6075 30.824 82.0315 28.392 82.0315 25.608C82.0315 22.824 82.5915 20.392 83.7115 18.312C84.8635 16.232 86.4635 14.632 88.5115 13.512C90.5595 12.392 92.9115 11.832 95.5675 11.832C98.1595 11.832 100.464 12.376 102.48 13.464C104.496 14.552 106.064 16.104 107.184 18.12C108.336 20.136 108.911 22.488 108.911 25.176ZM100.512 23.016C100.512 21.608 100.032 20.488 99.0715 19.656C98.1115 18.824 96.9115 18.408 95.4715 18.408C94.0955 18.408 92.9275 18.808 91.9675 19.608C91.0395 20.408 90.4635 21.544 90.2395 23.016H100.512ZM120.922 32.232H132.538V39H111.754V32.472L122.89 18.984H111.85V12.216H132.298V18.744L120.922 32.232ZM162.302 25.176C162.302 25.944 162.254 26.744 162.158 27.576H143.582C143.71 29.24 144.238 30.52 145.166 31.416C146.126 32.28 147.294 32.712 148.67 32.712C150.718 32.712 152.142 31.848 152.942 30.12H161.678C161.23 31.88 160.414 33.464 159.23 34.872C158.078 36.28 156.622 37.384 154.862 38.184C153.102 38.984 151.134 39.384 148.958 39.384C146.334 39.384 143.998 38.824 141.95 37.704C139.902 36.584 138.302 34.984 137.15 32.904C135.998 30.824 135.422 28.392 135.422 25.608C135.422 22.824 135.982 20.392 137.102 18.312C138.254 16.232 139.854 14.632 141.902 13.512C143.95 12.392 146.302 11.832 148.958 11.832C151.55 11.832 153.854 12.376 155.87 13.464C157.886 14.552 159.454 16.104 160.574 18.12C161.726 20.136 162.302 22.488 162.302 25.176ZM153.902 23.016C153.902 21.608 153.422 20.488 152.462 19.656C151.502 18.824 150.302 18.408 148.862 18.408C147.486 18.408 146.318 18.808 145.358 19.608C144.43 20.408 143.854 21.544 143.63 23.016H153.902ZM170.472 39.384C169.032 39.384 167.848 38.968 166.92 38.136C166.024 37.272 165.576 36.216 165.576 34.968C165.576 33.688 166.024 32.616 166.92 31.752C167.848 30.888 169.032 30.456 170.472 30.456C171.88 30.456 173.032 30.888 173.928 31.752C174.856 32.616 175.32 33.688 175.32 34.968C175.32 36.216 174.856 37.272 173.928 38.136C173.032 38.968 171.88 39.384 170.472 39.384ZM178.547 25.56C178.547 22.808 179.059 20.392 180.083 18.312C181.139 16.232 182.563 14.632 184.355 13.512C186.147 12.392 188.147 11.832 190.355 11.832C192.243 11.832 193.891 12.216 195.299 12.984C196.739 13.752 197.843 14.76 198.611 16.008V12.216H206.819V39H198.611V35.208C197.811 36.456 196.691 37.464 195.251 38.232C193.843 39 192.195 39.384 190.307 39.384C188.131 39.384 186.147 38.824 184.355 37.704C182.563 36.552 181.139 34.936 180.083 32.856C179.059 30.744 178.547 28.312 178.547 25.56ZM198.611 25.608C198.611 23.56 198.035 21.944 196.883 20.76C195.763 19.576 194.387 18.984 192.755 18.984C191.123 18.984 189.731 19.576 188.579 20.76C187.459 21.912 186.899 23.512 186.899 25.56C186.899 27.608 187.459 29.24 188.579 30.456C189.731 31.64 191.123 32.232 192.755 32.232C194.387 32.232 195.763 31.64 196.883 30.456C198.035 29.272 198.611 27.656 198.611 25.608ZM216.885 9.432C215.445 9.432 214.261 9.016 213.333 8.184C212.437 7.32 211.989 6.264 211.989 5.016C211.989 3.736 212.437 2.68 213.333 1.848C214.261 0.983997 215.445 0.551997 216.885 0.551997C218.293 0.551997 219.445 0.983997 220.341 1.848C221.269 2.68 221.733 3.736 221.733 5.016C221.733 6.264 221.269 7.32 220.341 8.184C219.445 9.016 218.293 9.432 216.885 9.432ZM220.965 12.216V39H212.757V12.216H220.965Z" fill="#684BFF"/>
</svg>
